<svg width="12" height="12" viewBox="0 0 12 12" fill="none" xmlns="http://www.w3.org/2000/svg">
<g id="clarity:sun-solid">
<path id="Vector" d="M6.00008 2.13989C6.08849 2.13989 6.17327 2.10477 6.23578 2.04226C6.2983 1.97975 6.33342 1.89496 6.33342 1.80656V0.636556C6.33342 0.54815 6.2983 0.463366 6.23578 0.400854C6.17327 0.338342 6.08849 0.303223 6.00008 0.303223C5.91168 0.303223 5.82689 0.338342 5.76438 0.400854C5.70187 0.463366 5.66675 0.54815 5.66675 0.636556V1.80656C5.66675 1.89496 5.70187 1.97975 5.76438 2.04226C5.82689 2.10477 5.91168 2.13989 6.00008 2.13989Z" fill="white"/>
<path id="Vector_2" d="M6.00008 9.86011C5.91168 9.86011 5.82689 9.89523 5.76438 9.95774C5.70187 10.0203 5.66675 10.105 5.66675 10.1934V11.3634C5.66675 11.4518 5.70187 11.5366 5.76438 11.5991C5.82689 11.6617 5.91168 11.6968 6.00008 11.6968C6.08849 11.6968 6.17327 11.6617 6.23578 11.5991C6.2983 11.5366 6.33342 11.4518 6.33342 11.3634V10.1934C6.33342 10.105 6.2983 10.0203 6.23578 9.95774C6.17327 9.89523 6.08849 9.86011 6.00008 9.86011Z" fill="white"/>
<path id="Vector_3" d="M2.79989 3.26989C2.86365 3.32449 2.94568 3.35303 3.02957 3.34979C3.11346 3.34655 3.19304 3.31177 3.25241 3.25241C3.31177 3.19304 3.34655 3.11346 3.34979 3.02957C3.35303 2.94568 3.32449 2.86365 3.26989 2.79989L2.44322 1.97322C2.37945 1.91861 2.29743 1.89007 2.21353 1.89332C2.12964 1.89656 2.05006 1.93133 1.9907 1.9907C1.93133 2.05006 1.89656 2.12964 1.89332 2.21353C1.89007 2.29743 1.91861 2.37945 1.97322 2.44322L2.79989 3.26989Z" fill="white"/>
<path id="Vector_4" d="M9.20005 8.73005C9.13629 8.67545 9.05426 8.64691 8.97037 8.65015C8.88648 8.65339 8.8069 8.68817 8.74753 8.74753C8.68817 8.8069 8.65339 8.88648 8.65015 8.97037C8.64691 9.05426 8.67545 9.13629 8.73005 9.20005L9.55672 10.0267C9.62049 10.0813 9.70251 10.1099 9.78641 10.1066C9.8703 10.1034 9.94988 10.0686 10.0092 10.0092C10.0686 9.94988 10.1034 9.8703 10.1066 9.78641C10.1099 9.70251 10.0813 9.62049 10.0267 9.55672L9.20005 8.73005Z" fill="white"/>
<path id="Vector_5" d="M2.13989 6.00008C2.13989 5.91168 2.10477 5.82689 2.04226 5.76438C1.97975 5.70187 1.89496 5.66675 1.80656 5.66675H0.636556C0.54815 5.66675 0.463366 5.70187 0.400854 5.76438C0.338342 5.82689 0.303223 5.91168 0.303223 6.00008C0.303223 6.08849 0.338342 6.17327 0.400854 6.23578C0.463366 6.2983 0.54815 6.33342 0.636556 6.33342H1.80656C1.89496 6.33342 1.97975 6.2983 2.04226 6.23578C2.10477 6.17327 2.13989 6.08849 2.13989 6.00008Z" fill="white"/>
<path id="Vector_6" d="M11.3634 5.66675H10.1934C10.105 5.66675 10.0203 5.70187 9.95774 5.76438C9.89523 5.82689 9.86011 5.91168 9.86011 6.00008C9.86011 6.08849 9.89523 6.17327 9.95774 6.23578C10.0203 6.2983 10.105 6.33342 10.1934 6.33342H11.3634C11.4518 6.33342 11.5366 6.2983 11.5991 6.23578C11.6617 6.17327 11.6968 6.08849 11.6968 6.00008C11.6968 5.91168 11.6617 5.82689 11.5991 5.76438C11.5366 5.70187 11.4518 5.66675 11.3634 5.66675Z" fill="white"/>
<path id="Vector_7" d="M2.79989 8.73005L1.97322 9.55672C1.91861 9.62049 1.89007 9.70251 1.89332 9.78641C1.89656 9.8703 1.93133 9.94988 1.9907 10.0092C2.05006 10.0686 2.12964 10.1034 2.21353 10.1066C2.29743 10.1099 2.37945 10.0813 2.44322 10.0267L3.26989 9.20005C3.32449 9.13629 3.35303 9.05426 3.34979 8.97037C3.34655 8.88648 3.31177 8.8069 3.25241 8.74753C3.19304 8.68817 3.11346 8.65339 3.02957 8.65015C2.94568 8.64691 2.86365 8.67545 2.79989 8.73005Z" fill="white"/>
<path id="Vector_8" d="M9.20005 3.26989L10.0267 2.44322C10.0813 2.37945 10.1099 2.29743 10.1066 2.21353C10.1034 2.12964 10.0686 2.05006 10.0092 1.9907C9.94988 1.93133 9.8703 1.89656 9.78641 1.89332C9.70251 1.89007 9.62049 1.91861 9.55672 1.97322L8.73005 2.79989C8.67545 2.86365 8.64691 2.94568 8.65015 3.02957C8.65339 3.11346 8.68817 3.19304 8.74753 3.25241C8.8069 3.31177 8.88648 3.34655 8.97037 3.34979C9.05426 3.35303 9.13629 3.32449 9.20005 3.26989Z" fill="white"/>
<path id="Vector_9" d="M6 9C7.65685 9 9 7.65685 9 6C9 4.34315 7.65685 3 6 3C4.34315 3 3 4.34315 3 6C3 7.65685 4.34315 9 6 9Z" fill="white"/>
</g>
</svg>
