<svg width="148" height="42" viewBox="0 0 148 42" fill="none" xmlns="http://www.w3.org/2000/svg">
<path d="M17.6782 0L9.45044 19.2884H56.8012V0H17.6782Z" fill="#ED1C24"/>
<path d="M25.9718 12.9686L19.3962 12.9357C18.3058 12.9357 17.7771 12.3432 17.7771 11.1583L17.8101 7.83383C17.8101 6.64887 18.3719 6.0564 19.4623 6.0564L24.6831 6.08931C25.7735 6.08931 26.3022 6.68179 26.3022 7.86674L26.2692 10.0062L19.7927 9.97332V11.1583C19.7927 11.4874 19.8588 11.7178 19.9579 11.8166C20.0571 11.9482 20.2553 11.9812 20.5527 11.9812L24.9805 12.0141C25.344 12.0141 25.7405 11.9812 26.2031 11.8824L25.9718 12.9686ZM19.7927 9.05169L24.2866 9.08461V7.83383C24.2866 7.50467 24.2205 7.27426 24.1214 7.17552C24.0222 7.07677 23.824 7.01094 23.5266 7.01094L20.5527 6.97803C20.2553 6.97803 20.0571 7.04386 19.9579 7.1426C19.8588 7.24135 19.7927 7.47176 19.7927 7.80091V9.05169Z" fill="white"/>
<path d="M27.4587 12.9687C27.5909 12.7054 27.657 12.3762 27.657 11.9812L27.7231 4.50943C27.7231 4.11445 27.69 3.7853 27.5579 3.52197L29.7057 3.55489L29.6726 8.98592L33.1091 6.5831C33.2743 6.45144 33.4065 6.31978 33.4395 6.12229H35.5213C35.1578 6.28686 34.8273 6.45144 34.596 6.61602L32.3822 8.16304L35.6204 12.3104C35.7856 12.5079 36.0169 12.7383 36.2812 13.0016L33.7369 12.9687L30.8291 9.31508L29.6726 10.138V11.9812C29.6726 12.3762 29.7387 12.7054 29.8378 12.9687H27.4587Z" fill="white"/>
<path d="M36.81 7.20856L37.0083 6.15527L43.1873 6.18819C44.2777 6.18819 44.8064 6.78067 44.8064 7.96562L44.7734 12.113C44.7734 12.5079 44.8395 12.8371 44.9716 13.1004H43.0882L42.8569 12.7054C42.6586 12.9688 42.3943 13.1004 42.0969 13.1004L38.0326 13.0675C37.1074 13.0675 36.6448 12.5079 36.6448 11.4217V10.0393C36.6448 8.95308 37.1074 8.39352 38.0656 8.39352L42.2291 8.42643C42.4934 8.42643 42.6917 8.39352 42.7577 8.32769C42.8238 8.26186 42.8569 8.13019 42.8569 7.9327V7.76813C42.8569 7.5048 42.8238 7.30731 42.7247 7.24148C42.6586 7.17565 42.5264 7.14273 42.3282 7.14273L38.0987 7.10982C37.6691 7.0769 37.2726 7.10982 36.81 7.20856ZM42.7908 9.34806L39.123 9.31515C38.8587 9.31515 38.6604 9.38098 38.5943 9.47972C38.5282 9.57847 38.4952 9.77596 38.4952 10.0064V11.3559C38.4952 11.6192 38.5282 11.7838 38.5943 11.8825C38.6604 12.0142 38.8587 12.08 39.123 12.08L42.163 12.113C42.4273 12.113 42.5925 12.0471 42.6917 11.9155C42.7577 11.8496 42.7908 11.6521 42.7908 11.3888V9.34806Z" fill="white"/>
<path d="M46.095 15.7666C46.2271 15.5033 46.2602 15.207 46.2932 14.7791L46.3593 7.17569C46.3593 6.78071 46.2932 6.45156 46.1611 6.18823H48.0776L48.3089 6.61613C48.441 6.45156 48.5402 6.31989 48.6723 6.28698C48.8045 6.25406 48.9367 6.22115 49.168 6.22115L52.9349 6.25406C54.0253 6.25406 54.554 6.84654 54.554 8.03149L54.521 11.3559C54.521 12.5409 53.9592 13.1334 52.9018 13.1334L49.2341 13.1005C48.8375 13.1005 48.5402 12.9688 48.3089 12.7384V14.7791C48.3089 15.1741 48.3749 15.5033 48.4741 15.7666H46.095ZM48.2758 11.4547C48.2758 11.7509 48.3089 11.9484 48.408 12.0472C48.5071 12.1459 48.6723 12.2117 48.9367 12.2117L51.8114 12.2447C52.0758 12.2447 52.241 12.1788 52.3401 12.0801C52.4392 11.9813 52.4723 11.7838 52.4723 11.4876L52.5053 7.93275C52.5053 7.63651 52.4723 7.47193 52.3732 7.34027C52.274 7.20861 52.1088 7.17569 51.8445 7.17569L48.9697 7.14278C48.7054 7.14278 48.5402 7.17569 48.441 7.30736C48.3419 7.43902 48.3089 7.60359 48.3089 7.89983L48.2758 11.4547Z" fill="white"/>
<path d="M87.8947 16.1943C88.0269 16.1943 88.1591 16.2272 88.2912 16.2601C90.6703 17.1818 92.4877 18.63 93.7103 20.4733C94.8998 22.3165 95.4946 24.5877 95.4946 27.2209V27.2868C95.4946 29.1959 95.1642 30.9404 94.5364 32.4874C93.9086 34.0015 92.9503 35.351 91.7277 36.4043C90.439 37.5564 88.7869 38.4451 86.9034 39.0375C84.8217 39.6959 82.4426 40.025 79.7661 40.025H71.9019C71.3401 40.025 70.8775 39.5642 70.8775 39.0046V21.7899C70.8775 21.3291 71.1749 20.9341 71.6375 20.8024L87.6304 16.2601C87.6965 16.2272 87.7956 16.1943 87.8947 16.1943ZM87.8947 14.3181C87.6304 14.3181 87.366 14.351 87.1017 14.4169L71.0427 18.9592C69.7871 19.3212 68.928 20.4733 68.928 21.757V39.0375C68.928 40.6504 70.2497 41.967 71.8688 41.967H79.7331C91.4964 41.967 97.4111 35.9435 97.4111 27.3197V27.2539C97.4111 21.2633 94.6025 16.7209 89.0182 14.5156C88.6547 14.3839 88.2582 14.3181 87.8947 14.3181Z" fill="white"/>
<path d="M52.0758 21.7571H58.7505L67.2756 42H59.9401L58.8827 39.301H51.8115L50.7871 42H43.5837L52.0758 21.7571ZM57.1975 34.5282L55.3471 29.6568L53.4967 34.5282H57.1975Z" fill="white"/>
<path d="M116.213 21.8887H123.251L127.579 28.9655L131.908 21.8887H138.946V41.967H132.239V32.0266L127.613 39.1692H127.48L122.854 32.0266V42H116.246L116.213 21.8887Z" fill="white"/>
<path d="M99.5259 21.8887H114.131V27.3855H106.168V29.4263H113.404V34.2648H106.168V36.4373H114.263V41.9341H99.5259V21.8887Z" fill="white"/>
<path d="M147.967 21.8887V26.0689H141.226V21.8887H147.967ZM141.226 42H147.967V28.1755H141.226V42Z" fill="white"/>
<path d="M78.8737 34.5941C77.9816 34.5941 77.2546 33.8699 77.2546 32.9812V23.1724C77.2546 22.2837 77.9816 21.5596 78.8737 21.5596C79.1711 21.5596 79.4355 21.6254 79.6998 21.79L88.2249 26.6944C89.018 27.1223 89.2823 28.1097 88.8197 28.8997C88.6875 29.163 88.4562 29.3605 88.2249 29.4922L79.6998 34.3966C79.4685 34.5282 79.1711 34.5941 78.8737 34.5941Z" fill="#ED1C24"/>
<path d="M93.0162 10.0063L92.818 8.7884L92.7849 8.65674L94.6023 7.24138L92.3554 6.4185C92.3223 5.92476 92.3223 5.5627 92.2562 5.23354C92.091 4.44357 91.5293 4.0815 90.7693 4.31191C90.1745 4.47649 89.6458 4.83856 89.1832 5.26646L74.8095 0C71.5713 2.63323 68.2339 5.33229 64.9296 8.03135C63.1453 9.47962 61.394 10.895 59.6758 12.2774C59.4775 12.442 59.2462 12.6066 59.0149 12.837C60.9644 13.3966 65.6235 14.6803 66.02 14.779L65.8548 13.7915C65.8548 13.7915 69.5887 11.1912 70.9104 10.5658C73.5208 9.31505 76.0651 8.65674 78.9729 8.62382C81.6494 8.59091 84.3589 9.01881 86.9363 9.67712C87.3328 9.77586 87.7293 9.87461 88.1259 10.0063L88.4893 10.105L88.7537 11.7837C89.8771 10.9279 90.9345 10.105 92.058 9.28213C92.091 9.54545 92.1571 9.84169 92.1902 10.1379C92.6528 12.9687 92.6858 13.1661 92.6858 13.1661L91.5293 13.3636L91.9258 16.1285L93.3136 14.779L95.2301 15.569L94.8006 12.837L93.5119 13.0345L93.0162 10.0063ZM91.1989 5.23354C91.6945 5.43103 91.5623 6.15517 91.5623 6.15517L90.4058 5.72727C90.571 5.39812 91.0006 5.1348 91.1989 5.23354ZM91.5954 8.75549C91.0997 8.82132 90.6702 8.49216 90.6041 7.99843C90.538 7.53762 90.8684 7.0768 91.331 7.01097C91.8267 6.94514 92.2562 7.27429 92.3223 7.76802C92.3884 8.26175 92.058 8.68966 91.5954 8.75549Z" fill="white"/>
<path d="M87.3329 10.8291C87.2668 10.7962 87.1677 10.7633 87.0355 10.7304C85.119 10.1708 83.1695 9.77581 81.1869 9.61123C79.1052 9.44666 76.9904 9.67706 75.0078 10.105C72.1661 10.6974 69.6879 12.2445 67.3749 13.9561C67.2757 14.0219 67.2096 14.0877 67.1436 14.1206C67.1436 14.1206 67.507 16.3589 67.7714 18.0047L87.5972 12.3761L87.3329 10.8291Z" fill="#E21E2F"/>
<path d="M8.49207 21.7571H15.1668L23.6919 42H16.3563L15.299 39.301H8.22773L7.20339 42H0L8.49207 21.7571ZM13.6468 34.5282L11.7964 29.6568L9.94597 34.5282H13.6468Z" fill="white"/>
<path d="M24.551 21.8887H31.2918V29.3934L37.0413 21.8887H44.8725L37.8343 30.6112L45.0047 41.967H36.9752L33.0101 35.5815L31.2918 37.688V41.967H24.551V21.8887Z" fill="white"/>
</svg>
